<?xml version="1.0" encoding="UTF-8"?>
<svg version="1.1" xmlns="http://www.w3.org/2000/svg" width="693" height="325">
<path d="M0 0 C228.69 0 457.38 0 693 0 C693 107.25 693 214.5 693 325 C464.31 325 235.62 325 0 325 C0 217.75 0 110.5 0 0 Z " fill="#000000" transform="translate(0,0)"/>
<path d="M0 0 C3.2331694 2.65838373 5.52470993 4.72238937 6 9 C6.66 9 7.32 9 8 9 C8.33 8.34 8.66 7.68 9 7 C9.99 6.34 10.98 5.68 12 5 C12 5.66 12 6.32 12 7 C12.66 7 13.32 7 14 7 C14.2475 6.236875 14.495 5.47375 14.75 4.6875 C16.16008412 1.65581915 17.01626376 0.49186812 20 -1 C23 -1 23 -1 26 0 C29.37803047 3.47186465 31.85382621 6.90679129 32.1953125 11.796875 C32.17210937 12.77140625 32.14890625 13.7459375 32.125 14.75 C32.10695312 15.73484375 32.08890625 16.7196875 32.0703125 17.734375 C32.04710937 18.48203125 32.02390625 19.2296875 32 20 C32.61875 19.649375 33.2375 19.29875 33.875 18.9375 C34.926875 18.4734375 34.926875 18.4734375 36 18 C36.66 18.33 37.32 18.66 38 19 C38.94875 18.95875 39.8975 18.9175 40.875 18.875 C44.39401691 19.01576068 45.54408403 19.54408403 48 22 C49.89977232 27.69931695 50.1326504 34.17233432 47.8828125 39.7890625 C46.67521185 41.93818229 45.42271607 43.98787298 44 46 C43.01 46 42.02 46 41 46 C40.67 46.99 40.34 47.98 40 49 C40 48.34 40 47.68 40 47 C38.68 47 37.36 47 36 47 C35.96241577 48.0372522 35.96241577 48.0372522 35.92407227 49.09545898 C35.80847839 52.20967866 35.68558758 55.32356789 35.5625 58.4375 C35.52318359 59.52611328 35.48386719 60.61472656 35.44335938 61.73632812 C35.40146484 62.77080078 35.35957031 63.80527344 35.31640625 64.87109375 C35.27974854 65.82943115 35.24309082 66.78776855 35.20532227 67.77514648 C35 70 35 70 34 71 C32.58774954 71.0928726 31.17091066 71.11746772 29.75561523 71.11352539 C28.85475693 71.11344986 27.95389862 71.11337433 27.02574158 71.11329651 C26.04658279 71.10813522 25.06742401 71.10297394 24.05859375 71.09765625 C23.06118668 71.0962413 22.0637796 71.09482635 21.03614807 71.09336853 C17.83656876 71.08775114 14.63705831 71.07519571 11.4375 71.0625 C9.27408955 71.05748724 7.11067801 71.05292395 4.94726562 71.04882812 C-0.36853774 71.03862505 -5.68419139 71.01905308 -11 71 C-11 63.08 -11 55.16 -11 47 C-14.3 47 -17.6 47 -21 47 C-25.35407209 44.77664404 -27.02094717 41.79036691 -28.49609375 37.2890625 C-29.57577665 32.38445645 -30.2615546 27.18894741 -27.6875 22.72265625 C-26 21 -26 21 -22.625 20.6875 C-19.65882298 20.94320492 -16.90866791 21.41826642 -14 22 C-13.34 21.67 -12.68 21.34 -12 21 C-12.04640625 19.81921875 -12.0928125 18.6384375 -12.140625 17.421875 C-12.17814949 15.86460866 -12.21454893 14.30731492 -12.25 12.75 C-12.28351563 11.97269531 -12.31703125 11.19539063 -12.3515625 10.39453125 C-12.4507459 4.59230246 -12.4507459 4.59230246 -10.109375 1.515625 C-6.31836244 -1.20828773 -4.55148637 -1.24942763 0 0 Z " fill="#FCFCFC" transform="translate(174,111)"/>
<path d="M0 0 C6.93 0 13.86 0 21 0 C21 9.9 21 19.8 21 30 C30.57 30 40.14 30 50 30 C50 20.1 50 10.2 50 0 C56.6 0 63.2 0 70 0 C70 25.74 70 51.48 70 78 C63.4 78 56.8 78 50 78 C50 67.44 50 56.88 50 46 C40.43 46 30.86 46 21 46 C21 56.56 21 67.12 21 78 C14.07 78 7.14 78 0 78 C0 52.26 0 26.52 0 0 Z " fill="#F7F7F7" transform="translate(73,104)"/>
<path d="M0 0 C0.886875 0.4125 1.77375 0.825 2.6875 1.25 C7.50160192 4.89310415 9.78412188 9.4603047 12 15 C12.495 21.435 12.495 21.435 13 28 C0.13 28 -12.74 28 -26 28 C-23.96896279 36.32917961 -23.96896279 36.32917961 -21 39 C-16.15070128 39.3179868 -12.36543467 39.38114619 -8 37 C-7.505 36.01 -7.505 36.01 -7 35 C-0.73 35 5.54 35 12 35 C9.66168572 42.01494285 6.82129797 46.52799511 0.4375 50.375 C-5.04327456 52.96591161 -10.00341994 53.1581914 -16 53.125 C-16.69867188 53.12886719 -17.39734375 53.13273437 -18.1171875 53.13671875 C-21.87074298 53.12963657 -25.35151145 52.89787023 -29 52 C-29 51.34 -29 50.68 -29 50 C-30.051875 49.9071875 -30.051875 49.9071875 -31.125 49.8125 C-35.12080087 48.68325193 -37.02810678 46.90277942 -40 44 C-40 43.01 -40 42.02 -40 41 C-40.66 41 -41.32 41 -42 41 C-46.04764015 32.90471969 -46.31793538 23.13243401 -44.42578125 14.328125 C-43.19445331 10.86216488 -41.55287151 7.66386593 -39 5 C-38.34 5 -37.68 5 -37 5 C-36.67 4.01 -36.34 3.02 -36 2 C-34.29296875 0.8671875 -34.29296875 0.8671875 -32.1875 -0.125 C-31.50042969 -0.45757812 -30.81335938 -0.79015625 -30.10546875 -1.1328125 C-21.0913741 -4.84548228 -8.6069652 -4.38468039 0 0 Z " fill="#F6F6F6" transform="translate(504,131)"/>
<path d="M0 0 C6.27 0 12.54 0 19 0 C19.02578125 2.56394531 19.0515625 5.12789062 19.078125 7.76953125 C19.11653432 10.25182085 19.1616979 12.73390193 19.20751953 15.21606445 C19.23575031 16.94154918 19.2569544 18.66716374 19.27099609 20.39282227 C19.29239742 22.87323574 19.33902917 25.3520849 19.390625 27.83203125 C19.39185364 28.60400345 19.39308228 29.37597565 19.39434814 30.17134094 C19.5036697 34.48941872 19.5036697 34.48941872 21.81933594 37.9909668 C25.65078298 39.76384752 29.34546649 39.53660546 33.3125 38.25 C35.4901019 36.63696156 36.02209292 35.54722746 37 33 C37.23505111 30.43207563 37.37171528 27.96121582 37.4140625 25.390625 C37.43342865 24.66381531 37.4527948 23.93700562 37.4727478 23.18817139 C37.53234271 20.87556552 37.57884758 18.56290933 37.625 16.25 C37.66319836 14.67836418 37.70225117 13.10674887 37.7421875 11.53515625 C37.83963062 7.69021329 37.9193553 3.84547863 38 0 C44.27 0 50.54 0 57 0 C57.13840736 5.53373148 57.2576251 11.06136992 57.32958984 16.59545898 C57.35960914 18.4742476 57.40043883 20.35289789 57.45263672 22.23120117 C57.9612891 41.01643166 57.9612891 41.01643166 52.78759766 47.55883789 C50.66172494 49.27271752 48.56989056 50.11374598 46 51 C46 51.66 46 52.32 46 53 C40.0638783 55.05763778 34.69117808 55.30281079 28.4375 55.25 C27.51775391 55.25773437 26.59800781 55.26546875 25.65039062 55.2734375 C17.82176908 55.25092529 12.34103477 53.82470037 6 49 C0.43350293 42.96962817 -0.29373056 37.86788442 -0.1953125 29.98046875 C-0.1924826 29.12189774 -0.18965271 28.26332672 -0.18673706 27.3787384 C-0.1755807 24.64818125 -0.15048459 21.9179573 -0.125 19.1875 C-0.11496432 17.33138496 -0.1058395 15.47526476 -0.09765625 13.61914062 C-0.07736146 9.07919678 -0.03820451 4.53996948 0 0 Z " fill="#F7F7F7" transform="translate(230,129)"/>
<path d="M0 0 C3.2331694 2.65838373 5.52470993 4.72238937 6 9 C6.66 9 7.32 9 8 9 C8.33 8.34 8.66 7.68 9 7 C9.99 6.34 10.98 5.68 12 5 C12 5.66 12 6.32 12 7 C12.66 7 13.32 7 14 7 C14.2475 6.236875 14.495 5.47375 14.75 4.6875 C16.16008412 1.65581915 17.01626376 0.49186812 20 -1 C23 -1 23 -1 26 0 C29.37803047 3.47186465 31.85382621 6.90679129 32.1953125 11.796875 C32.17210937 12.77140625 32.14890625 13.7459375 32.125 14.75 C32.10695312 15.73484375 32.08890625 16.7196875 32.0703125 17.734375 C32.04710937 18.48203125 32.02390625 19.2296875 32 20 C32.61875 19.649375 33.2375 19.29875 33.875 18.9375 C34.926875 18.4734375 34.926875 18.4734375 36 18 C36.66 18.33 37.32 18.66 38 19 C38.94875 18.95875 39.8975 18.9175 40.875 18.875 C44.39401691 19.01576068 45.54408403 19.54408403 48 22 C49.89977232 27.69931695 50.1326504 34.17233432 47.8828125 39.7890625 C46.67521185 41.93818229 45.42271607 43.98787298 44 46 C43.01 46 42.02 46 41 46 C40.67 46.99 40.34 47.98 40 49 C40 48.34 40 47.68 40 47 C38.68 47 37.36 47 36 47 C35.67 54.59 35.34 62.18 35 70 C34.67 70 34.34 70 34 70 C34.00954712 68.95658447 34.00954712 68.95658447 34.01928711 67.89208984 C34.0280097 64.71865187 33.98324829 61.54810112 33.9375 58.375 C33.95393555 56.73337891 33.95393555 56.73337891 33.97070312 55.05859375 C33.98139436 49.09869505 33.98139436 49.09869505 31.37939453 43.95800781 C29.49337827 42.33478549 29.49337827 42.33478549 27.49829102 41.07275391 C27.00385498 40.71874512 26.50941895 40.36473633 26 40 C26 39.34 26 38.68 26 38 C25.43152344 37.75507813 24.86304688 37.51015625 24.27734375 37.2578125 C20.76604375 35.3184667 18.17041928 32.46917501 15.31640625 29.6796875 C12.61818099 27.72313292 11.25726208 27.64382672 8 28 C7.67 28.99 7.34 29.98 7 31 C6.34 31 5.68 31 5 31 C5 31.66 5 32.32 5 33 C3.26608049 34.60634015 1.461909 36.1375287 -0.375 37.625 C-1.37273437 38.44226563 -2.37046875 39.25953125 -3.3984375 40.1015625 C-6 42 -6 42 -8 42 C-8.08636719 41.19175781 -8.17273438 40.38351563 -8.26171875 39.55078125 C-9.13008239 32.9464376 -9.64632486 29.11821165 -15 25 C-15.33 24.34 -15.66 23.68 -16 23 C-14.68 22.34 -13.36 21.68 -12 21 C-12.04640625 19.81921875 -12.0928125 18.6384375 -12.140625 17.421875 C-12.17814949 15.86460866 -12.21454893 14.30731492 -12.25 12.75 C-12.28351563 11.97269531 -12.31703125 11.19539063 -12.3515625 10.39453125 C-12.4507459 4.59230246 -12.4507459 4.59230246 -10.109375 1.515625 C-6.31836244 -1.20828773 -4.55148637 -1.24942763 0 0 Z " fill="#0E0E0E" transform="translate(174,111)"/>
<path d="M0 0 C1.3293457 -0.01836914 1.3293457 -0.01836914 2.68554688 -0.03710938 C7.96378201 -0.0488301 12.31921038 0.45931631 17.3125 2.1875 C16.84752049 7.3022746 14.34874172 10.21703006 11.3125 14.1875 C3.8875 13.1975 3.8875 13.1975 -3.6875 12.1875 C-3.6875 14.4975 -3.6875 16.8075 -3.6875 19.1875 C-3.03523438 19.30867188 -2.38296875 19.42984375 -1.7109375 19.5546875 C8.446329 21.50224597 8.446329 21.50224597 12.3125 23.1875 C12.8075 24.6725 12.8075 24.6725 13.3125 26.1875 C13.9725 26.1875 14.6325 26.1875 15.3125 26.1875 C15.3125 26.8475 15.3125 27.5075 15.3125 28.1875 C15.9725 28.1875 16.6325 28.1875 17.3125 28.1875 C19.55121088 32.66492175 18.91809442 38.34274468 18.3125 43.1875 C15.55406964 49.00985464 11.12842051 53.17865996 5.07421875 55.34765625 C1.05498314 56.24499338 -2.77393624 56.60998982 -6.875 56.625 C-7.61097412 56.62886719 -8.34694824 56.63273437 -9.10522461 56.63671875 C-16.00278765 56.49278525 -21.62076605 54.46049712 -27.6875 51.1875 C-26.17275928 46.37035158 -24.27167449 42.49445748 -21.6875 38.1875 C-19.08875125 38.63299979 -16.88158057 39.0932323 -14.5 40.25 C-10.27063778 41.65978741 -6.10688194 41.34196383 -1.6875 41.1875 C-1.3575 39.5375 -1.0275 37.8875 -0.6875 36.1875 C-2.04097689 35.72713371 -3.395327 35.26933463 -4.75 34.8125 C-5.57113281 34.5340625 -6.39226562 34.255625 -7.23828125 33.96875 C-9.27601026 33.3187567 -11.35456524 32.79851811 -13.4375 32.3125 C-17.27642659 30.9836408 -19.12074449 29.2987188 -21.6875 26.1875 C-21.6875 25.5275 -21.6875 24.8675 -21.6875 24.1875 C-22.3475 24.1875 -23.0075 24.1875 -23.6875 24.1875 C-24.18638055 17.42489703 -24.08704484 11.65654746 -19.6875 6.1875 C-13.1309063 0.97850659 -8.16689942 0.00581274 0 0 Z " fill="#F6F6F6" transform="translate(323.6875,127.8125)"/>
<path d="M0 0 C0.76892578 -0.01224609 1.53785156 -0.02449219 2.33007812 -0.03710938 C7.60758198 -0.05047014 12.11521664 0.72423011 17.1875 2.1875 C16.14856026 6.60198324 14.26970584 10.15742418 12.1875 14.1875 C7.2375 13.8575 2.2875 13.5275 -2.8125 13.1875 C-3.1425 14.8375 -3.4725 16.4875 -3.8125 18.1875 C-3.0390625 18.33445313 -2.265625 18.48140625 -1.46875 18.6328125 C6.90943319 20.43702522 12.62809648 22.96070832 18.1875 29.5625 C20.14917202 34.71188906 19.85864838 39.25888732 17.75 44.25 C15.07662481 49.0639781 10.96216221 52.52203323 6.1875 55.1875 C-3.62888537 57.50117121 -14.49809841 57.17677219 -23.8125 53.1875 C-24.8025 52.5275 -25.7925 51.8675 -26.8125 51.1875 C-26.29724397 45.90612571 -24.55772883 42.61528844 -21.8125 38.1875 C-19.21375125 38.63299979 -17.00658057 39.0932323 -14.625 40.25 C-10.39563778 41.65978741 -6.23188194 41.34196383 -1.8125 41.1875 C-1.4825 39.5375 -1.1525 37.8875 -0.8125 36.1875 C-2.16597689 35.72713371 -3.520327 35.26933463 -4.875 34.8125 C-5.69742188 34.53148437 -6.51984375 34.25046875 -7.3671875 33.9609375 C-9.99159207 33.08356142 -9.99159207 33.08356142 -13.5 32.4375 C-18.08321894 30.70798342 -20.68307443 28.64879652 -22.8125 24.1875 C-23.86690943 18.19996073 -24.09861501 12.23998927 -20.5625 7.0625 C-14.13061809 0.33825982 -8.97144232 0.00740829 0 0 Z " fill="#F7F7F7" transform="translate(599.8125,127.8125)"/>
<path d="M0 0 C6.27 0 12.54 0 19 0 C19 5.28 19 10.56 19 16 C22.63 16 26.26 16 30 16 C30 21.28 30 26.56 30 32 C26.37 32 22.74 32 19 32 C19 44.21 19 56.42 19 69 C12.73 69 6.46 69 0 69 C0 56.79 0 44.58 0 32 C-1.98 32 -3.96 32 -6 32 C-6 26.72 -6 21.44 -6 16 C-4.02 16 -2.04 16 0 16 C0 10.72 0 5.44 0 0 Z " fill="#F6F6F6" transform="translate(424,113)"/>
<path d="M0 0 C6.27 0 12.54 0 19 0 C19 5.28 19 10.56 19 16 C22.3 16 25.6 16 29 16 C29 20.95 29 25.9 29 31 C25.7 31 22.4 31 19 31 C19 43.54 19 56.08 19 69 C12.73 69 6.46 69 0 69 C0 56.46 0 43.92 0 31 C-1.98 31 -3.96 31 -6 31 C-6 26.05 -6 21.1 -6 16 C-4.02 16 -2.04 16 0 16 C0 10.72 0 5.44 0 0 Z " fill="#F7F7F7" transform="translate(386,113)"/>
<path d="M0 0 C0 5.61 0 11.22 0 17 C-4.83398438 16.85351562 -4.83398438 16.85351562 -9.66796875 16.70703125 C-13.40241382 17.03538222 -15.14550234 17.58153573 -18 20 C-19.73314852 24.22647662 -20.28418379 27.9464325 -20.4140625 32.4921875 C-20.45273437 33.69101563 -20.49140625 34.88984375 -20.53125 36.125 C-20.57765625 37.98125 -20.57765625 37.98125 -20.625 39.875 C-20.66367187 41.13570312 -20.70234375 42.39640625 -20.7421875 43.6953125 C-20.83616717 46.79664173 -20.91916009 49.89830045 -21 53 C-26.94 53 -32.88 53 -39 53 C-39 35.84 -39 18.68 -39 1 C-33.06 1 -27.12 1 -21 1 C-21 3.31 -21 5.62 -21 8 C-20.34 8 -19.68 8 -19 8 C-18.79375 7.4225 -18.5875 6.845 -18.375 6.25 C-13.92924176 -1.02487712 -7.61838095 -0.37162834 0 0 Z " fill="#FCFCFC" transform="translate(567,129)"/>
<path d="M0 0 C6.27 0 12.54 0 19 0 C19 17.49 19 34.98 19 53 C12.73 53 6.46 53 0 53 C0 35.51 0 18.02 0 0 Z " fill="#F9F9F9" transform="translate(352,129)"/>
<path d="M0 0 C5.14662626 0.84370922 8.12737471 3.0145732 11.8125 6.625 C15.26346102 11.47791393 15.15632391 15.89460145 14.8125 21.625 C16.1325 20.965 17.4525 20.305 18.8125 19.625 C17.8125 22.625 17.8125 22.625 15.78808594 23.96606445 C13.57065947 25.48345199 13.57065947 25.48345199 13.26660156 28.16870117 C13.23518066 29.65333862 13.23518066 29.65333862 13.203125 31.16796875 C13.17250977 32.13500732 13.14189453 33.1020459 13.11035156 34.09838867 C13.09456055 35.32404541 13.07876953 36.54970215 13.0625 37.8125 C12.98 41.710625 12.8975 45.60875 12.8125 49.625 C27.3325 49.625 41.8525 49.625 56.8125 49.625 C56.8125 49.955 56.8125 50.285 56.8125 50.625 C41.9625 50.625 27.1125 50.625 11.8125 50.625 C11.8125 42.705 11.8125 34.785 11.8125 26.625 C8.5125 26.625 5.2125 26.625 1.8125 26.625 C-2.54157209 24.40164404 -4.20844717 21.41536691 -5.68359375 16.9140625 C-6.7603338 12.02282475 -7.46696434 6.80650556 -4.86328125 2.3671875 C-3.1875 0.625 -3.1875 0.625 0 0 Z " fill="#F2F2F2" transform="translate(151.1875,131.375)"/>
<path d="M0 0 C4.6014427 3.74536033 7.59687331 7.66191434 8.3203125 13.65234375 C8.49769037 18.0572276 8.4282046 21.1435908 6.4375 25.125 C3.20272873 27.61328559 1.06463082 28 -3 28 C-6.61957851 26.73735633 -8.37657721 24.82671847 -10.3125 21.625 C-12.81259201 16.13500203 -13.0591385 9.88756402 -12 4 C-8.20512629 -0.63472281 -5.81236792 -1.59555198 0 0 Z " fill="#F3F3F3" transform="translate(174,111)"/>
<path d="M0 0 C4.20835046 1.52216932 5.97770533 4.14291065 7.9375 8.0625 C8.74395193 15.0561569 7.78778382 21.08747762 3.9375 27.0625 C0.17250419 29.5724972 -1.60543606 29.67726744 -6.0625 29.0625 C-9.32108138 26.42790229 -10.74149244 24.86931397 -11.47265625 20.75390625 C-11.72763077 13.64787723 -10.52647839 6.85944844 -5.75 1.4375 C-3.0625 0.0625 -3.0625 0.0625 0 0 Z " fill="#F6F6F6" transform="translate(197.0625,109.9375)"/>
<path d="M0 0 C3.1359157 1.77984405 3.84102736 2.52308207 5 6 C5.49241379 11.59414356 5.74420025 16.42891058 3.3125 21.5625 C0.92534049 24.07869516 -0.78063441 25.69692345 -4 27 C-7.41702512 26.93026479 -9.42652201 26.33201357 -12.375 24.625 C-15.05368133 20.29789939 -14.68222999 15.93934509 -14 11 C-12.73083158 7.03708636 -10.96489269 4.02921886 -8.125 1 C-5.20684353 -0.3732501 -3.18883155 -0.39860394 0 0 Z " fill="#F4F4F4" transform="translate(218,130)"/>
<path d="M0 0 C3.60212567 0.30641901 6.80236422 0.86993211 10.0625 2.5 C12.24303839 6.06815374 12.56638109 9.38497107 12.0625 13.5 C8.93942308 19.20769231 8.93942308 19.20769231 5.0625 20.5 C0.66910196 20.99354932 -2.77274108 21.34445022 -6.4375 18.6875 C-9.17608247 14.69373389 -9.42012187 11.24578168 -8.9375 6.5 C-6.3496454 2.05212491 -5.17102169 0.65663768 0 0 Z " fill="#F1F1F1" transform="translate(359.9375,98.5)"/>
<path d="M0 0 C0.33 0 0.66 0 1 0 C1 3.63 1 7.26 1 11 C2.32 10.34 3.64 9.68 5 9 C4.39340946 11.90524943 3.46248602 14.03178843 1.9375 16.5625 C-0.61785423 21.56986693 -0.99808438 26.48845442 0 32 C1.79545952 34.9700931 1.79545952 34.9700931 5 36 C7.82794125 36 10.19955727 35.56958157 13 35 C13 35.66 13 36.32 13 37 C12.01 37 11.02 37 10 37 C9.67 37.99 9.34 38.98 9 40 C9 39.34 9 38.68 9 38 C7.68 38 6.36 38 5 38 C4.67 45.59 4.34 53.18 4 61 C3.67 61 3.34 61 3 61 C3.00636475 60.30438965 3.01272949 59.6087793 3.01928711 58.89208984 C3.0280097 55.71865187 2.98324829 52.54810112 2.9375 49.375 C2.94845703 48.28058594 2.95941406 47.18617188 2.97070312 46.05859375 C2.98139436 40.09869505 2.98139436 40.09869505 0.37939453 34.95800781 C-1.50662173 33.33478549 -1.50662173 33.33478549 -3.50170898 32.07275391 C-4.24336304 31.54174072 -4.24336304 31.54174072 -5 31 C-5 30.34 -5 29.68 -5 29 C-5.56460938 28.7525 -6.12921875 28.505 -6.7109375 28.25 C-9.37661633 26.79433921 -11.37972787 25.04252181 -13.625 23 C-14.40101563 22.29875 -15.17703125 21.5975 -15.9765625 20.875 C-17.34234404 19.60941093 -18.6833613 18.3166387 -20 17 C-19.34 15.68 -18.68 14.36 -18 13 C-17.484375 13.825 -16.96875 14.65 -16.4375 15.5 C-14.16211298 18.33068575 -14.16211298 18.33068575 -10.5 18.5625 C-7.01831204 18.26494185 -7.01831204 18.26494185 -4.6875 16.375 C-1.12254805 11.35766022 -0.61682388 5.96263082 0 0 Z " fill="#161616" transform="translate(205,120)"/>
<path d="M0 0 C3.1875 2.25 3.1875 2.25 5 5 C5 6.32 5 7.64 5 9 C-1.93 9 -8.86 9 -16 9 C-15 4 -15 4 -13.625 1.6875 C-9.34816975 -1.06189088 -4.92367919 -0.85217524 0 0 Z " fill="#1F1F1F" transform="translate(494,140)"/>
<path d="M0 0 C0 0.99 0 1.98 0 3 C-0.64743164 3.44255127 -1.29486328 3.88510254 -1.96191406 4.34106445 C-4.24438164 5.84549112 -4.24438164 5.84549112 -4.54589844 8.54370117 C-4.5668457 9.53345947 -4.58779297 10.52321777 -4.609375 11.54296875 C-4.65529785 12.99352661 -4.65529785 12.99352661 -4.70214844 14.47338867 C-4.71793945 15.69904541 -4.73373047 16.92470215 -4.75 18.1875 C-4.8325 22.085625 -4.915 25.98375 -5 30 C9.52 30 24.04 30 39 30 C39 30.33 39 30.66 39 31 C24.15 31 9.3 31 -6 31 C-6 23.08 -6 15.16 -6 7 C-9.3 7 -12.6 7 -16 7 C-16.33 6.34 -16.66 5.68 -17 5 C-16.31292969 5.03480469 -15.62585938 5.06960937 -14.91796875 5.10546875 C-13.56638672 5.14607422 -13.56638672 5.14607422 -12.1875 5.1875 C-10.84751953 5.23970703 -10.84751953 5.23970703 -9.48046875 5.29296875 C-6.53068488 4.94456908 -5.86528166 4.22057341 -4 2 C-1.8125 0.8125 -1.8125 0.8125 0 0 Z " fill="#CDCDCD" transform="translate(169,151)"/>
<path d="M0 0 C2 2 2 2 2.13525391 3.97119141 C2.08288574 4.75671387 2.03051758 5.54223633 1.9765625 6.3515625 C1.925 7.20234375 1.8734375 8.053125 1.8203125 8.9296875 C1.75585938 9.81914063 1.69140625 10.70859375 1.625 11.625 C1.56828125 12.5221875 1.5115625 13.419375 1.453125 14.34375 C1.31145247 16.56328624 1.1600296 18.78172402 1 21 C-1.49092811 22.24546405 -2.41080733 21.7767578 -5 21 C-4.83371094 20.47664063 -4.66742188 19.95328125 -4.49609375 19.4140625 C-3.6463795 15.27923252 -4.04212214 11.10045182 -4.16015625 6.8984375 C-3.95326775 3.1542602 -2.57271813 2.57271813 0 0 Z " fill="#0D0D0D" transform="translate(185,116)"/>
<path d="M0 0 C1.50433594 0.01353516 1.50433594 0.01353516 3.0390625 0.02734375 C3.80992187 0.03894531 4.58078125 0.05054688 5.375 0.0625 C5.375 1.7125 5.375 3.3625 5.375 5.0625 C2.405 4.7325 -0.565 4.4025 -3.625 4.0625 C-3.625 4.7225 -3.625 5.3825 -3.625 6.0625 C-4.285 6.0625 -4.945 6.0625 -5.625 6.0625 C-6.285 5.4025 -6.945 4.7425 -7.625 4.0625 C-9.275 4.7225 -10.925 5.3825 -12.625 6.0625 C-8.11063658 1.42933754 -6.44641504 -0.07495831 0 0 Z " fill="#F7F7F7" transform="translate(561.625,128.9375)"/>
<path d="M0 0 C0.66 0.33 1.32 0.66 2 1 C2 6.28 2 11.56 2 17 C-2.29 17 -6.58 17 -11 17 C-11 16.67 -11 16.34 -11 16 C-7.7 16 -4.4 16 -1 16 C-1.01160156 14.92878906 -1.02320313 13.85757813 -1.03515625 12.75390625 C-1.04453299 11.35677257 -1.05363331 9.95963701 -1.0625 8.5625 C-1.07506836 7.50192383 -1.07506836 7.50192383 -1.08789062 6.41992188 C-1.09653588 4.61306441 -1.05220011 2.80612397 -1 1 C-0.67 0.67 -0.34 0.34 0 0 Z " fill="#353535" transform="translate(416,128)"/>
<path d="M0 0 C0.804375 0.4640625 0.804375 0.4640625 1.625 0.9375 C5.7917867 2.80158879 9.63008608 3.51266251 14 2 C14 2.66 14 3.32 14 4 C13.01 4 12.02 4 11 4 C10.67 4.99 10.34 5.98 10 7 C10 6.34 10 5.68 10 5 C8.68 5 7.36 5 6 5 C5.67 12.59 5.34 20.18 5 28 C4.67 28 4.34 28 4 28 C3.98541748 27.29391602 3.97083496 26.58783203 3.95581055 25.86035156 C3.88126833 22.65635326 3.78462795 19.45338984 3.6875 16.25 C3.66494141 15.13882813 3.64238281 14.02765625 3.61914062 12.8828125 C3.58369141 11.81289062 3.54824219 10.74296875 3.51171875 9.640625 C3.48553467 8.65610352 3.45935059 7.67158203 3.43237305 6.65722656 C2.94440233 3.65831447 1.99951045 2.24392093 0 0 Z " fill="#414141" transform="translate(204,153)"/>
<path d="M0 0 C1.98 0 3.96 0 6 0 C6 0.33 6 0.66 6 1 C4.35 1 2.7 1 1 1 C2.485 1.99 2.485 1.99 4 3 C3.67 6.96 3.34 10.92 3 15 C2.01 15 1.02 15 0 15 C0 10.05 0 5.1 0 0 Z " fill="#EDEDED" transform="translate(380,129)"/>
<path d="M0 0 C0.33 0 0.66 0 1 0 C1 3.63 1 7.26 1 11 C2.32 10.34 3.64 9.68 5 9 C4.42647107 12.87132028 2.51295648 15.08172796 0 18 C-0.33 17.34 -0.66 16.68 -1 16 C-1.99 16 -2.98 16 -4 16 C-3.2884375 14.2675 -3.2884375 14.2675 -2.5625 12.5 C-0.97791232 8.31429668 -0.39710805 4.44761014 0 0 Z " fill="#262626" transform="translate(205,120)"/>
<path d="M0 0 C0.66 0.33 1.32 0.66 2 1 C2.4140625 3.50390625 2.4140625 3.50390625 2.625 6.5625 C2.69976562 7.57441406 2.77453125 8.58632812 2.8515625 9.62890625 C2.90054688 10.41136719 2.94953125 11.19382813 3 12 C0.525 11.01 0.525 11.01 -2 10 C-2 9.34 -2 8.68 -2 8 C-2.99 7.67 -3.98 7.34 -5 7 C-4.01 6.67 -3.02 6.34 -2 6 C-0.77479736 2.99152582 -0.77479736 2.99152582 0 0 Z " fill="#222222" transform="translate(202,141)"/>
<path d="M0 0 C0.763125 0.20625 1.52625 0.4125 2.3125 0.625 C2.3125 1.285 2.3125 1.945 2.3125 2.625 C1.6525 2.625 0.9925 2.625 0.3125 2.625 C-0.0175 3.615 -0.3475 4.605 -0.6875 5.625 C-1.3475 5.625 -2.0075 5.625 -2.6875 5.625 C-2.6875 4.965 -2.6875 4.305 -2.6875 3.625 C-5.6575 3.625 -8.6275 3.625 -11.6875 3.625 C-12.0175 2.965 -12.3475 2.305 -12.6875 1.625 C-11.0478125 1.686875 -11.0478125 1.686875 -9.375 1.75 C-5.36548192 1.61408413 -3.79649435 -0.5297434 0 0 Z " fill="#262626" transform="translate(181.6875,136.375)"/>
<path d="M0 0 C3.25543229 0.34879632 4.01873107 1.02133261 6.25 3.5625 C6.8275 4.366875 7.405 5.17125 8 6 C6.35 6.33 4.7 6.66 3 7 C2.67 6.01 2.34 5.02 2 4 C1.34 4 0.68 4 0 4 C0 2.68 0 1.36 0 0 Z " fill="#EFEFEF" transform="translate(200,152)"/>
<path d="M0 0 C0 0.99 0 1.98 0 3 C-3.76204814 6.46504434 -6.25548653 7.25727204 -11.375 7.25 C-12.91760237 7.18629371 -14.45997544 7.10956696 -16 7 C-16.33 6.34 -16.66 5.68 -17 5 C-16.31292969 5.03480469 -15.62585938 5.06960937 -14.91796875 5.10546875 C-13.56638672 5.14607422 -13.56638672 5.14607422 -12.1875 5.1875 C-10.84751953 5.23970703 -10.84751953 5.23970703 -9.48046875 5.29296875 C-6.53068488 4.94456908 -5.86528166 4.22057341 -4 2 C-1.8125 0.8125 -1.8125 0.8125 0 0 Z " fill="#929292" transform="translate(169,151)"/>
<path d="M0 0 C1.32 0.33 2.64 0.66 4 1 C4 2.66666667 4 4.33333333 4 6 C1.36 5.67 -1.28 5.34 -4 5 C-3.34 4.01 -2.68 3.02 -2 2 C-1.34 2 -0.68 2 0 2 C0 1.34 0 0.68 0 0 Z " fill="#E9E9E9" transform="translate(608,136)"/>
<path d="M0 0 C-0.66 0 -1.32 0 -2 0 C-2 1.65 -2 3.3 -2 5 C-2.66 5 -3.32 5 -4 5 C-4.66 4.34 -5.32 3.68 -6 3 C-7.65 3.66 -9.3 4.32 -11 5 C-4.74206349 -1.42261905 -4.74206349 -1.42261905 0 0 Z " fill="#D9D9D9" transform="translate(560,130)"/>
<path d="M0 0 C3.465 1.485 3.465 1.485 7 3 C7 3.99 7 4.98 7 6 C4.69 5.34 2.38 4.68 0 4 C0 2.68 0 1.36 0 0 Z " fill="#262626" transform="translate(595,142)"/>
<path d="M0 0 C0.99 1.32 1.98 2.64 3 4 C2.67 4.66 2.34 5.32 2 6 C1.34 5.67 0.68 5.34 0 5 C-0.33 5.99 -0.66 6.98 -1 8 C-2.32 6.68 -3.64 5.36 -5 4 C-4.360625 3.71125 -3.72125 3.4225 -3.0625 3.125 C-0.84793921 2.17176549 -0.84793921 2.17176549 0 0 Z " fill="#2D2D2D" transform="translate(163,130)"/>
<path d="M0 0 C0.66 0.33 1.32 0.66 2 1 C2 2.65 2 4.3 2 6 C0.68 6.33 -0.64 6.66 -2 7 C-1.125 2.25 -1.125 2.25 0 0 Z " fill="#0C0C0C" transform="translate(203,135)"/>
<path d="M0 0 C-0.66 1.65 -1.32 3.3 -2 5 C-3.65 4.67 -5.3 4.34 -7 4 C-3.17391304 0 -3.17391304 0 0 0 Z " fill="#3C3C3C" transform="translate(508,179)"/>
<path d="M0 0 C0.66 0.99 1.32 1.98 2 3 C0.35 4.32 -1.3 5.64 -3 7 C-3.33 5.68 -3.66 4.36 -4 3 C-2.68 2.01 -1.36 1.02 0 0 Z " fill="#EEEEEE" transform="translate(613,173)"/>
<path d="M0 0 C0.99 0.33 1.98 0.66 3 1 C3 4 3 4 1.6875 5.38671875 C0.125 6.59114583 -1.4375 7.79557292 -3 9 C-3.66 8.67 -4.32 8.34 -5 8 C-4.360625 7.236875 -3.72125 6.47375 -3.0625 5.6875 C-0.85767219 3.11753287 -0.85767219 3.11753287 0 0 Z " fill="#323232" transform="translate(617,170)"/>
<path d="M0 0 C0.99 0.33 1.98 0.66 3 1 C2.01 1.495 2.01 1.495 1 2 C1 2.99 1 3.98 1 5 C-0.875 5.625 -0.875 5.625 -3 6 C-3.66 5.34 -4.32 4.68 -5 4 C-2.6875 1.9375 -2.6875 1.9375 0 0 Z " fill="#DDDDDD" transform="translate(184,138)"/>
<path d="M0 0 C0.99 0.33 1.98 0.66 3 1 C2 4 2 4 0.0625 5.125 C-0.618125 5.41375 -1.29875 5.7025 -2 6 C-2.99 6.495 -2.99 6.495 -4 7 C-2.92598892 4.08482708 -2.22189824 2.22189824 0 0 Z " fill="#C6C6C6" transform="translate(582,132)"/>
<path d="M0 0 C0.66 0.66 1.32 1.32 2 2 C0.02 4.31 -1.96 6.62 -4 9 C-4.33 8.34 -4.66 7.68 -5 7 C-5.66 6.67 -6.32 6.34 -7 6 C-6.030625 5.38125 -5.06125 4.7625 -4.0625 4.125 C-0.97164638 2.34321154 -0.97164638 2.34321154 0 0 Z " fill="#323232" transform="translate(283,174)"/>
<path d="M0 0 C1.65 1.65 3.3 3.3 5 5 C4.01 5.66 3.02 6.32 2 7 C0.4375 5.75 0.4375 5.75 -1 4 C-0.6875 1.8125 -0.6875 1.8125 0 0 Z " fill="#373737" transform="translate(186,133)"/>
<path d="M0 0 C0.66 0.33 1.32 0.66 2 1 C-0.31 3.31 -2.62 5.62 -5 8 C-5 5 -5 5 -2.5 2.3125 C-1.675 1.549375 -0.85 0.78625 0 0 Z " fill="#CBCBCB" transform="translate(308,131)"/>
<path d="M0 0 C2.475 0.495 2.475 0.495 5 1 C4.625 3.4375 4.625 3.4375 4 6 C3.01 6.495 3.01 6.495 2 7 C2 5.02 2 3.04 2 1 C1.34 0.67 0.68 0.34 0 0 Z " fill="#A1A1A1" transform="translate(336,129)"/>
<path d="M0 0 C1.98 0.99 1.98 0.99 4 2 C3 4 2 6 1 8 C0 7 0 7 -0.0625 3.4375 C-0.041875 2.303125 -0.02125 1.16875 0 0 Z " fill="#F0F0F0" transform="translate(316,140)"/>
<path d="M0 0 C1.9375 0.3125 1.9375 0.3125 4 1 C4.33 1.99 4.66 2.98 5 4 C5.66 4 6.32 4 7 4 C7 4.66 7 5.32 7 6 C5.1875 5.8125 5.1875 5.8125 3 5 C1.25 2.4375 1.25 2.4375 0 0 Z " fill="#FCFCFC" transform="translate(356,113)"/>
</svg>
