<?xml version="1.0" encoding="UTF-8"?>
<svg version="1.1" xmlns="http://www.w3.org/2000/svg" width="693" height="325">
<path d="M0 0 C228.69 0 457.38 0 693 0 C693 107.25 693 214.5 693 325 C464.31 325 235.62 325 0 325 C0 217.75 0 110.5 0 0 Z " fill="#FEFEFE" transform="translate(0,0)"/>
<path d="M0 0 C6.93 0 13.86 0 21 0 C21 9.9 21 19.8 21 30 C30.57 30 40.14 30 50 30 C50 20.1 50 10.2 50 0 C56.6 0 63.2 0 70 0 C70 25.74 70 51.48 70 78 C63.4 78 56.8 78 50 78 C50 67.44 50 56.88 50 46 C40.43 46 30.86 46 21 46 C21 56.56 21 67.12 21 78 C14.07 78 7.14 78 0 78 C0 52.26 0 26.52 0 0 Z " fill="#060606" transform="translate(73,104)"/>
<path d="M0 0 C1.02287109 -0.01836914 1.02287109 -0.01836914 2.06640625 -0.03710938 C10.51081036 -0.06123624 15.96076338 2.20354746 22.10546875 7.9609375 C28.46333536 14.97057766 29.125 21.77672641 29.125 31.1875 C16.255 31.1875 3.385 31.1875 -9.875 31.1875 C-8.38295955 37.75573439 -8.38295955 37.75573439 -5.875 41.1875 C-2.24796974 42.39651009 1.36517363 42.97410475 5.125 42.1875 C5.66769531 41.52621094 6.21039063 40.86492187 6.76953125 40.18359375 C10.45919275 37.05686568 14.20795593 37.75826345 18.875 37.9375 C19.76316406 37.95554688 20.65132813 37.97359375 21.56640625 37.9921875 C23.75370848 38.03922626 25.93879816 38.10492991 28.125 38.1875 C26.97311297 42.09727042 25.84025122 45.00784238 23.125 48.0625 C22.609375 48.65804687 22.09375 49.25359375 21.5625 49.8671875 C20.125 51.1875 20.125 51.1875 18.125 51.1875 C18.125 51.8475 18.125 52.5075 18.125 53.1875 C8.41651748 57.10823333 -3.32998604 58.12934112 -13.375 54.75 C-19.92417067 51.63555459 -24.30347652 46.23661683 -27.57421875 39.890625 C-28.97529482 35.90197601 -29.33549767 32.42388645 -29.25 28.25 C-29.24202393 27.5477832 -29.23404785 26.84556641 -29.22583008 26.12207031 C-29.03821465 19.30458495 -27.74946785 13.27390124 -22.875 8.1875 C-22.215 8.1875 -21.555 8.1875 -20.875 8.1875 C-20.545 7.1975 -20.215 6.2075 -19.875 5.1875 C-13.24133217 0.8501018 -7.91292102 0.00739525 0 0 Z " fill="#070707" transform="translate(487.875,127.8125)"/>
<path d="M0 0 C6.27 0 12.54 0 19 0 C19.04898438 2.39636719 19.09796875 4.79273438 19.1484375 7.26171875 C19.20250296 9.59177704 19.25978849 11.92173556 19.31738281 14.25170898 C19.35558072 15.8665417 19.39044945 17.48145684 19.421875 19.09643555 C19.46772609 21.42266217 19.52568584 23.74832592 19.5859375 26.07421875 C19.59748871 26.79212082 19.60903992 27.51002289 19.62094116 28.24967957 C19.73767501 32.24658602 20.24740681 35.39334769 22 39 C23.41623216 39.05447047 24.83308191 39.09300508 26.25 39.125 C27.03890625 39.14820313 27.8278125 39.17140625 28.640625 39.1953125 C31.30515759 38.97473861 32.7902517 38.50149564 35 37 C37.45242971 33.39012029 37.34463177 29.60525806 37.4140625 25.390625 C37.43342865 24.66381531 37.4527948 23.93700562 37.4727478 23.18817139 C37.53234271 20.87556552 37.57884758 18.56290933 37.625 16.25 C37.66319836 14.67836418 37.70225117 13.10674887 37.7421875 11.53515625 C37.83963062 7.69021329 37.9193553 3.84547863 38 0 C44.27 0 50.54 0 57 0 C57.13840736 5.53373148 57.2576251 11.06136992 57.32958984 16.59545898 C57.35960914 18.4742476 57.40043883 20.35289789 57.45263672 22.23120117 C57.96877688 41.29296566 57.96877688 41.29296566 52.63183594 47.49194336 C43.83791312 55.61882266 34.15238439 55.73749371 22.7578125 55.40625 C15.04068844 54.9381572 9.04703803 52.30095787 3.75 46.5625 C-0.02666942 41.03237693 -0.27646844 36.48446443 -0.1953125 29.98046875 C-0.1924826 29.12189774 -0.18965271 28.26332672 -0.18673706 27.3787384 C-0.1755807 24.64818125 -0.15048459 21.9179573 -0.125 19.1875 C-0.11496432 17.33138496 -0.1058395 15.47526476 -0.09765625 13.61914062 C-0.07736146 9.07919678 -0.03820451 4.53996948 0 0 Z " fill="#060606" transform="translate(230,129)"/>
<path d="M0 0 C6.06473684 1.12309941 10.80976657 4.49059077 14.4375 9.4375 C15.76947998 13.96623194 16.55320437 19.26859125 14.375 23.625 C15.035 23.625 15.695 23.625 16.375 23.625 C16.705 22.635 17.035 21.645 17.375 20.625 C18.035 20.625 18.695 20.625 19.375 20.625 C19.375 19.965 19.375 19.305 19.375 18.625 C20.8359375 17.1171875 20.8359375 17.1171875 22.75 15.5 C23.68972656 14.69175781 23.68972656 14.69175781 24.6484375 13.8671875 C26.375 12.625 26.375 12.625 28.375 12.625 C28.375 11.965 28.375 11.305 28.375 10.625 C30.625 8.4375 30.625 8.4375 33.375 6.625 C37.66426152 7.07966172 39.93100465 9.59891353 42.9375 12.46875 C45.38941961 14.75090116 45.38941961 14.75090116 48.5625 16.65625 C52.26586766 19.16707231 55.37826584 21.53020765 57.375 25.625 C58.8825315 33.94817527 57.90864852 42.22003579 57.375 50.625 C42.525 50.625 27.675 50.625 12.375 50.625 C12.375 42.705 12.375 34.785 12.375 26.625 C9.405 26.625 6.435 26.625 3.375 26.625 C-0.72567066 23.61784152 -3.90017637 19.44708757 -5.625 14.625 C-6.23924656 10.20242477 -6.61995316 6.27565295 -4.26171875 2.36328125 C-2.625 0.625 -2.625 0.625 0 0 Z " fill="#020202" transform="translate(150.625,131.375)"/>
<path d="M0 0 C0.825 -0.01224609 1.65 -0.02449219 2.5 -0.03710938 C7.60347494 -0.04926051 11.79066604 0.53913546 16.625 2.1875 C15.30639111 6.80263112 13.41144563 10.28647612 10.625 14.1875 C9.985625 14.0225 9.34625 13.8575 8.6875 13.6875 C4.64913348 13.02817485 0.70692742 13.10746221 -3.375 13.1875 C-3.705 14.8375 -4.035 16.4875 -4.375 18.1875 C-3.6015625 18.33445313 -2.828125 18.48140625 -2.03125 18.6328125 C6.34693319 20.43702522 12.06559648 22.96070832 17.625 29.5625 C19.58667202 34.71188906 19.29614838 39.25888732 17.1875 44.25 C14.51412481 49.0639781 10.39966221 52.52203323 5.625 55.1875 C-4.19138537 57.50117121 -15.06059841 57.17677219 -24.375 53.1875 C-25.365 52.5275 -26.355 51.8675 -27.375 51.1875 C-26.72080901 46.11751981 -24.5203591 41.76759223 -22.375 37.1875 C-21.385 37.1875 -20.395 37.1875 -19.375 37.1875 C-19.375 37.8475 -19.375 38.5075 -19.375 39.1875 C-18.59125 39.331875 -17.8075 39.47625 -17 39.625 C-14.375 40.1875 -14.375 40.1875 -12.375 41.1875 C-10.66797265 41.25746014 -8.95831997 41.27190154 -7.25 41.25 C-6.33992187 41.24097656 -5.42984375 41.23195312 -4.4921875 41.22265625 C-3.79351563 41.21105469 -3.09484375 41.19945312 -2.375 41.1875 C-2.045 39.5375 -1.715 37.8875 -1.375 36.1875 C-2.54417969 35.90777344 -3.71335937 35.62804687 -4.91796875 35.33984375 C-6.4665085 34.93628491 -8.01466641 34.53125886 -9.5625 34.125 C-10.33142578 33.94517578 -11.10035156 33.76535156 -11.89257812 33.58007812 C-16.94644383 32.21358225 -19.75957481 30.56449356 -22.52758789 26.04907227 C-24.68884257 21.30128577 -24.17347646 16.2191691 -23.375 11.1875 C-21.52963365 6.93008 -18.4306136 3.46878265 -14.375 1.1875 C-9.63755281 -0.11030642 -4.87345821 0.00377203 0 0 Z " fill="#080808" transform="translate(600.375,127.8125)"/>
<path d="M0 0 C0.87720703 -0.01224609 1.75441406 -0.02449219 2.65820312 -0.03710938 C7.90294588 -0.04887768 12.22461317 0.47452542 17.1875 2.1875 C17.1875 3.1775 17.1875 4.1675 17.1875 5.1875 C16.5275 5.1875 15.8675 5.1875 15.1875 5.1875 C15.084375 5.744375 14.98125 6.30125 14.875 6.875 C14.05670509 9.6274465 12.69299415 11.75368506 11.1875 14.1875 C10.27226562 14.10371094 9.35703125 14.01992187 8.4140625 13.93359375 C7.22554688 13.83175781 6.03703125 13.72992188 4.8125 13.625 C3.03746094 13.46837891 3.03746094 13.46837891 1.2265625 13.30859375 C-1.73148631 12.94596404 -1.73148631 12.94596404 -3.8125 14.1875 C-3.8125 15.8375 -3.8125 17.4875 -3.8125 19.1875 C-3.16023438 19.30867188 -2.50796875 19.42984375 -1.8359375 19.5546875 C0.84554888 20.06883681 3.51641115 20.62199921 6.1875 21.1875 C7.26 21.414375 8.3325 21.64125 9.4375 21.875 C13.54608792 23.83591696 16.18766536 26.04251402 18.1875 30.1875 C18.87496495 35.62829401 18.93056094 40.95831717 17.1875 46.1875 C16.5275 46.1875 15.8675 46.1875 15.1875 46.1875 C14.960625 46.765 14.73375 47.3425 14.5 47.9375 C12.18561218 51.90502198 9.33020206 53.79390263 5.0234375 55.27734375 C0.97149673 56.23875129 -2.85626588 56.60983364 -7 56.625 C-7.73597412 56.62886719 -8.47194824 56.63273437 -9.23022461 56.63671875 C-16.12778765 56.49278525 -21.74576605 54.46049712 -27.8125 51.1875 C-26.66362887 47.57528356 -25.42917691 44.17974203 -23.6875 40.8125 C-23.33429688 40.12414062 -22.98109375 39.43578125 -22.6171875 38.7265625 C-22.35164063 38.21867187 -22.08609375 37.71078125 -21.8125 37.1875 C-16.8125 39.1875 -16.8125 39.1875 -14.625 40.3125 C-10.38858506 41.63049576 -6.21481649 41.34136737 -1.8125 41.1875 C-1.4825 39.5375 -1.1525 37.8875 -0.8125 36.1875 C-2.16597689 35.72713371 -3.520327 35.26933463 -4.875 34.8125 C-5.69613281 34.5340625 -6.51726562 34.255625 -7.36328125 33.96875 C-9.40101026 33.3187567 -11.47956524 32.79851811 -13.5625 32.3125 C-17.92070036 30.80389218 -20.73845676 28.33558649 -22.8125 24.1875 C-24.00793367 11.97699895 -24.00793367 11.97699895 -20.5625 7.0625 C-14.00152852 0.20330255 -9.14817141 0.00663392 0 0 Z " fill="#070707" transform="translate(323.8125,127.8125)"/>
<path d="M0 0 C6.27 0 12.54 0 19 0 C19 5.28 19 10.56 19 16 C22.63 16 26.26 16 30 16 C30 21.28 30 26.56 30 32 C26.37 32 22.74 32 19 32 C19 44.21 19 56.42 19 69 C12.73 69 6.46 69 0 69 C0 56.79 0 44.58 0 32 C-1.98 32 -3.96 32 -6 32 C-6 26.72 -6 21.44 -6 16 C-4.02 16 -2.04 16 0 16 C0 10.72 0 5.44 0 0 Z " fill="#080808" transform="translate(424,113)"/>
<path d="M0 0 C6.27 0 12.54 0 19 0 C19 5.28 19 10.56 19 16 C22.3 16 25.6 16 29 16 C29 21.28 29 26.56 29 32 C25.7 32 22.4 32 19 32 C19 44.21 19 56.42 19 69 C12.73 69 6.46 69 0 69 C0 56.46 0 43.92 0 31 C-1.98 31 -3.96 31 -6 31 C-6 26.05 -6 21.1 -6 16 C-4.02 16 -2.04 16 0 16 C0 10.72 0 5.44 0 0 Z " fill="#060606" transform="translate(386,113)"/>
<path d="M0 0 C0 5.94 0 11.88 0 18 C-3.515625 17.90234375 -7.03125 17.8046875 -10.546875 17.70703125 C-14.2433786 18.02064864 -15.54742358 18.26663796 -18 21 C-19.68942188 25.24573363 -20.283994 28.93979013 -20.4140625 33.4921875 C-20.45273437 34.69101563 -20.49140625 35.88984375 -20.53125 37.125 C-20.57765625 38.98125 -20.57765625 38.98125 -20.625 40.875 C-20.66367187 42.13570312 -20.70234375 43.39640625 -20.7421875 44.6953125 C-20.83616717 47.79664173 -20.91916009 50.89830045 -21 54 C-26.94 54 -32.88 54 -39 54 C-39 36.84 -39 19.68 -39 2 C-33.06 2 -27.12 2 -21 2 C-21 4.31 -21 6.62 -21 9 C-20.34 9 -19.68 9 -19 9 C-18.79375 8.4225 -18.5875 7.845 -18.375 7.25 C-16.19614667 3.68460365 -12.92463359 1.74501945 -9.0625 0.25 C-6.06247584 -0.11363929 -3.02198254 0 0 0 Z " fill="#040404" transform="translate(567,128)"/>
<path d="M0 0 C6.27 0 12.54 0 19 0 C19 17.49 19 34.98 19 53 C12.73 53 6.46 53 0 53 C0 35.51 0 18.02 0 0 Z " fill="#050505" transform="translate(352,129)"/>
<path d="M0 0 C6.00951517 1.11287318 10.68622102 4.47564493 14.4375 9.25 C15.84814837 14.32833415 15.79863036 19.38664772 15.375 24.625 C15.045 24.955 14.715 25.285 14.375 25.625 C14.21735595 27.40369726 14.12399323 29.18818476 14.05859375 30.97265625 C14.02048584 31.94468994 13.98237793 32.91672363 13.94311523 33.91821289 C13.87846069 35.78401001 13.87846069 35.78401001 13.8125 37.6875 C13.668125 41.626875 13.52375 45.56625 13.375 49.625 C27.895 49.625 42.415 49.625 57.375 49.625 C57.375 49.955 57.375 50.285 57.375 50.625 C42.525 50.625 27.675 50.625 12.375 50.625 C12.375 42.705 12.375 34.785 12.375 26.625 C9.405 26.625 6.435 26.625 3.375 26.625 C-0.72567066 23.61784152 -3.90017637 19.44708757 -5.625 14.625 C-6.23924656 10.20242477 -6.61995316 6.27565295 -4.26171875 2.36328125 C-2.625 0.625 -2.625 0.625 0 0 Z " fill="#070707" transform="translate(150.625,131.375)"/>
<path d="M0 0 C3.87396648 3.15322853 6.34182436 6.28729029 8 11 C8.23393274 14.68189783 8.17695976 18.3166154 8 22 C7.34 22 6.68 22 6 22 C5.896875 22.61875 5.79375 23.2375 5.6875 23.875 C5 26 5 26 2 28 C-4.74153846 28 -4.74153846 28 -7.59765625 25.73046875 C-11.81719334 20.87123508 -12.17658942 16.73758008 -12.3125 10.5 C-12.34988281 9.3759375 -12.38726562 8.251875 -12.42578125 7.09375 C-11.91262298 3.36511374 -10.91176323 2.29051505 -8 0 C-4.99054157 -1.50472922 -3.20590237 -0.88005163 0 0 Z " fill="#0A0A0A" transform="translate(174,111)"/>
<path d="M0 0 C3.76016454 1.07433273 5.1926234 1.89391611 7.5 5 C9.22163646 10.33822847 9.61143015 16.89679898 7.7109375 22.203125 C5.9990924 25.31319472 4.46839512 27.02106992 1.5 29 C-1.875 29.5 -1.875 29.5 -5.5 29 C-8.75858138 26.36540229 -10.17899244 24.80681397 -10.91015625 20.69140625 C-11.1627293 13.65230529 -9.66757312 7.25135967 -5.75 1.375 C-3.5 0 -3.5 0 0 0 Z " fill="#090909" transform="translate(196.5,110)"/>
<path d="M0 0 C3 0.625 3 0.625 5.875 2.25 C9.34308593 7.75813647 9.1206138 13.31977425 8 19.625 C6.2264415 23.11637658 4.24270643 25.4304411 1 27.625 C-3.19104019 28.73690862 -4.59718391 27.84878672 -8.375 25.75 C-10.31968022 23.95334006 -10.93757731 22.92544092 -11.48046875 20.3125 C-11.7032076 13.35456245 -10.02513623 8.19747035 -5.6875 2.6875 C-3 0.625 -3 0.625 0 0 Z " fill="#0A0A0A" transform="translate(215,129.375)"/>
<path d="M0 0 C3.1875 2 3.1875 2 5 5 C5.71371926 9.99603479 5.54378107 11.96869108 3.1875 16.4375 C0.79564872 19.23938293 -0.51243998 19.83288921 -4.12109375 20.23828125 C-10.39410815 20.43927159 -10.39410815 20.43927159 -13.5 18.1875 C-16.23858247 14.19373389 -16.48262187 10.74578168 -16 6 C-12.3446442 -0.93257134 -7.45839684 -1.46484256 0 0 Z " fill="#0D0D0D" transform="translate(367,99)"/>
<path d="M0 0 C2 0.875 2 0.875 3.25 2.875 C5.62984052 5.59481773 7.58305681 5.58361652 11.0625 5.9921875 C13.33065512 6.0181693 13.33065512 6.0181693 16 3.875 C16.66 2.885 17.32 1.895 18 0.875 C18 1.535 18 2.195 18 2.875 C18.66 3.205 19.32 3.535 20 3.875 C20 5.195 20 6.515 20 7.875 C18.02 8.865 18.02 8.865 16 9.875 C16 10.535 16 11.195 16 11.875 C14.5390625 13.3828125 14.5390625 13.3828125 12.625 15 C11.68527344 15.80824219 11.68527344 15.80824219 10.7265625 16.6328125 C9 17.875 9 17.875 7 17.875 C7 18.535 7 19.195 7 19.875 C5.625 21.5 5.625 21.5 4 22.875 C3.34 22.875 2.68 22.875 2 22.875 C2.04640625 22.16214844 2.0928125 21.44929688 2.140625 20.71484375 C2.43137436 12.99960171 1.51770279 8.76959952 -3.75 2.9375 C-4.1625 2.586875 -4.575 2.23625 -5 1.875 C-2 -0.125 -2 -0.125 0 0 Z " fill="#EAEAEA" transform="translate(163,132.125)"/>
<path d="M0 0 C0.66 0.33 1.32 0.66 2 1 C1.46494566 3.31856881 0.83336313 5.4116911 -0.0625 7.625 C-1.31619349 12.13829656 -1.79586802 16.35614876 -1 21 C0.45654168 23.2787011 1.79872134 24.34904101 4 26 C-0.39750672 25.49259538 -2.86948922 22.91706686 -6 20 C-6 19.34 -6 18.68 -6 18 C-6.56460938 17.7525 -7.12921875 17.505 -7.7109375 17.25 C-10.37661633 15.79433921 -12.37972787 14.04252181 -14.625 12 C-15.40101563 11.29875 -16.17703125 10.5975 -16.9765625 9.875 C-18.34234404 8.60941093 -19.6833613 7.3166387 -21 6 C-20.01 5.01 -19.02 4.02 -18 3 C-17.649375 3.66 -17.29875 4.32 -16.9375 5 C-15.07552342 7.29249026 -15.07552342 7.29249026 -11.8125 7.6875 C-6.46881925 6.72388544 -3.72361181 3.79131384 0 0 Z " fill="#DFDFDF" transform="translate(206,131)"/>
<path d="M0 0 C3.1875 2.25 3.1875 2.25 5 5 C5 6.32 5 7.64 5 9 C-1.93 9 -8.86 9 -16 9 C-15 4 -15 4 -13.625 1.6875 C-9.34816975 -1.06189088 -4.92367919 -0.85217524 0 0 Z " fill="#E1E1E1" transform="translate(494,140)"/>
<path d="M0 0 C0.66 0.66 1.32 1.32 2 2 C1.67 2.33 1.34 2.66 1 3 C0.84235595 4.77869726 0.74899323 6.56318476 0.68359375 8.34765625 C0.64548584 9.31968994 0.60737793 10.29172363 0.56811523 11.29321289 C0.52501221 12.53707764 0.48190918 13.78094238 0.4375 15.0625 C0.293125 19.001875 0.14875 22.94125 0 27 C14.52 27 29.04 27 44 27 C44 27.33 44 27.66 44 28 C29.15 28 14.3 28 -1 28 C-1 20.08 -1 12.16 -1 4 C-3.97 4 -6.94 4 -10 4 C-10 3.67 -10 3.34 -10 3 C-8.72125 2.87625 -7.4425 2.7525 -6.125 2.625 C-2.65209064 2.30957601 -2.65209064 2.30957601 0 0 Z " fill="#393939" transform="translate(164,154)"/>
<path d="M0 0 C0.33 4.29 0.66 8.58 1 13 C0.01 13.66 -0.98 14.32 -2 15 C-3.5078125 13.78125 -3.5078125 13.78125 -5 12 C-5.1796875 9.84375 -5.1796875 9.84375 -4.875 7.5 C-4.78992188 6.7265625 -4.70484375 5.953125 -4.6171875 5.15625 C-3.98146595 2.93524812 -2.70229395 0 0 0 Z " fill="#F5F5F5" transform="translate(186,123)"/>
<path d="M0 0 C1.98 0 3.96 0 6 0 C6 0.33 6 0.66 6 1 C4.35 1 2.7 1 1 1 C1 2.98 1 4.96 1 7 C1.66 7 2.32 7 3 7 C3 9.64 3 12.28 3 15 C2.01 15 1.02 15 0 15 C0 10.05 0 5.1 0 0 Z " fill="#131313" transform="translate(380,129)"/>
<path d="M0 0 C0.66 0.33 1.32 0.66 2 1 C1.21302675 4.41021743 0.12880057 7.68885166 -1 11 C-2.41377341 8.36095629 -3.37240135 5.92879371 -4 3 C-2.68 2.01 -1.36 1.02 0 0 Z " fill="#E7E7E7" transform="translate(206,131)"/>
<path d="M0 0 C0.598125 0.20625 1.19625 0.4125 1.8125 0.625 C1.8125 1.945 1.8125 3.265 1.8125 4.625 C0.8225 4.955 -0.1675 5.285 -1.1875 5.625 C-2.5075 4.305 -3.8275 2.985 -5.1875 1.625 C-2.1875 -0.375 -2.1875 -0.375 0 0 Z " fill="#E3E3E3" transform="translate(163.1875,132.375)"/>
<path d="M0 0 C1.4540625 0.0309375 1.4540625 0.0309375 2.9375 0.0625 C2.9375 0.7225 2.9375 1.3825 2.9375 2.0625 C2.0403125 2.2171875 2.0403125 2.2171875 1.125 2.375 C-1.36111534 3.15635053 -2.29193442 4.21145416 -4.0625 6.0625 C-4.7225 6.0625 -5.3825 6.0625 -6.0625 6.0625 C-3.76028481 0.07674051 -3.76028481 0.07674051 0 0 Z " fill="#2C2C2C" transform="translate(151.0625,131.9375)"/>
<path d="M0 0 C1.20462891 -0.02126953 1.20462891 -0.02126953 2.43359375 -0.04296875 C4.5625 0.1875 4.5625 0.1875 6.5625 2.1875 C3.5925 2.1875 0.6225 2.1875 -2.4375 2.1875 C-2.4375 2.8475 -2.4375 3.5075 -2.4375 4.1875 C-3.4275 4.1875 -4.4175 4.1875 -5.4375 4.1875 C-5.7675 4.8475 -6.0975 5.5075 -6.4375 6.1875 C-5.33458299 0.04267666 -5.33458299 0.04267666 0 0 Z " fill="#AEAEAE" transform="translate(601.4375,139.8125)"/>
<path d="M0 0 C1.51400391 0.01740234 1.51400391 0.01740234 3.05859375 0.03515625 C4.07050781 0.04417969 5.08242188 0.05320313 6.125 0.0625 C7.29869141 0.07990234 7.29869141 0.07990234 8.49609375 0.09765625 C7.50609375 0.42765625 6.51609375 0.75765625 5.49609375 1.09765625 C5.49609375 1.75765625 5.49609375 2.41765625 5.49609375 3.09765625 C1.87080807 3.29906101 -0.36892333 2.9554239 -3.50390625 1.09765625 C-2.50390625 0.09765625 -2.50390625 0.09765625 0 0 Z " fill="#D8D8D8" transform="translate(485.50390625,139.90234375)"/>
<path d="M0 0 C0.66 0.33 1.32 0.66 2 1 C-0.97 3.97 -3.94 6.94 -7 10 C-7 7 -7 7 -4.625 4.4375 C-3.75875 3.633125 -2.8925 2.82875 -2 2 C-1.34 1.34 -0.68 0.68 0 0 Z " fill="#404040" transform="translate(310,129)"/>
<path d="M0 0 C0.66 0.66 1.32 1.32 2 2 C1.875 3.9375 1.875 3.9375 1 6 C-1.0625 7.75 -1.0625 7.75 -3 9 C-3.66 8.67 -4.32 8.34 -5 8 C-4.360625 7.236875 -3.72125 6.47375 -3.0625 5.6875 C-0.85767219 3.11753287 -0.85767219 3.11753287 0 0 Z " fill="#CECECE" transform="translate(617,170)"/>
<path d="M0 0 C0.99 0.33 1.98 0.66 3 1 C2.34 1 1.68 1 1 1 C1.309375 1.8971875 1.309375 1.8971875 1.625 2.8125 C2 5 2 5 0 8 C-0.66 7.67 -1.32 7.34 -2 7 C-1.34 4.69 -0.68 2.38 0 0 Z " fill="#272727" transform="translate(578,165)"/>
</svg>
