<?xml version="1.0" encoding="UTF-8" standalone="no"?>
<svg
   data-v-fde0c5aa=""
   viewBox="0 0 219.99998 33.037258"
   class="iconLeft"
   version="1.1"
   id="svg23"
   sodipodi:docname="default-white.svg"
   width="219.99998"
   height="33.037258"
   inkscape:version="1.2.2 (b0a8486541, 2022-12-01)"
   xmlns:inkscape="http://www.inkscape.org/namespaces/inkscape"
   xmlns:sodipodi="http://sodipodi.sourceforge.net/DTD/sodipodi-0.dtd"
   xmlns:xlink="http://www.w3.org/1999/xlink"
   xmlns="http://www.w3.org/2000/svg"
   xmlns:svg="http://www.w3.org/2000/svg">
  <sodipodi:namedview
     id="namedview25"
     pagecolor="#ffffff"
     bordercolor="#000000"
     borderopacity="0.25"
     inkscape:showpageshadow="2"
     inkscape:pageopacity="0.0"
     inkscape:pagecheckerboard="0"
     inkscape:deskcolor="#d1d1d1"
     showgrid="false"
     inkscape:zoom="4.1338465"
     inkscape:cx="96.520275"
     inkscape:cy="20.078152"
     inkscape:window-width="1920"
     inkscape:window-height="1169"
     inkscape:window-x="0"
     inkscape:window-y="0"
     inkscape:window-maximized="1"
     inkscape:current-layer="svg23" />
  <!---->
  <defs
     data-v-fde0c5aa=""
     id="defs2">
    <!---->
    <linearGradient
       inkscape:collect="always"
       xlink:href="#28ccac42-fe39-4b4b-b70b-24cd2214d825"
       id="linearGradient253"
       gradientTransform="scale(1.3269845,0.75358833)"
       x1="6.1711348"
       y1="9.134961"
       x2="77.561572"
       y2="9.134961"
       gradientUnits="userSpaceOnUse" />
    <linearGradient
       inkscape:collect="always"
       xlink:href="#28ccac42-fe39-4b4b-b70b-24cd2214d825"
       id="linearGradient255"
       gradientTransform="scale(0.76564149,1.3060943)"
       x1="61.753445"
       y1="30.988574"
       x2="83.957048"
       y2="30.988574"
       gradientUnits="userSpaceOnUse" />
    <linearGradient
       inkscape:collect="always"
       xlink:href="#28ccac42-fe39-4b4b-b70b-24cd2214d825"
       id="linearGradient257"
       gradientTransform="scale(1.2302701,0.81282965)"
       x1="6.656262"
       y1="8.4691792"
       x2="83.658866"
       y2="8.4691792"
       gradientUnits="userSpaceOnUse" />
  </defs>
  <defs
     data-v-fde0c5aa=""
     id="defs6">
    <!---->
  </defs>
  <g
     data-v-fde0c5aa=""
     id="39529ac8-6d5c-432e-bd45-348363becfa5"
     fill="#000000"
     transform="matrix(2.0450172,0,0,2.0450172,61.429349,-0.36299225)"
     style="fill:#ffffff">
    <path
       d="M 7.71,4.97 V 3.09 h 4.44 v 1.88 h -1.09 v 6.61 h 1.09 v 1.87 H 7.71 V 11.58 H 8.79 V 8.93 H 4.12 v 2.65 h 1.09 v 1.87 H 0.77 V 11.58 H 1.85 V 4.97 H 0.77 V 3.09 H 5.21 V 4.97 H 4.12 V 7.12 H 8.79 V 4.97 Z m 5.7,4.91 v 0 0 q 0,-0.77 0.28,-1.44 v 0 0 q 0.28,-0.68 0.78,-1.19 v 0 0 q 0.5,-0.5 1.19,-0.8 v 0 0 q 0.69,-0.29 1.52,-0.29 v 0 0 q 0.83,0 1.52,0.29 v 0 0 q 0.69,0.3 1.19,0.8 v 0 0 q 0.5,0.51 0.78,1.19 v 0 0 q 0.28,0.67 0.28,1.44 v 0 0 q 0,0.78 -0.27,1.46 v 0 0 q -0.27,0.68 -0.77,1.19 v 0 0 q -0.5,0.51 -1.19,0.8 v 0 0 q -0.69,0.29 -1.54,0.29 v 0 0 q -0.86,0 -1.55,-0.29 v 0 0 q -0.69,-0.29 -1.19,-0.8 v 0 0 q -0.49,-0.51 -0.76,-1.19 v 0 0 Q 13.41,10.66 13.41,9.88 Z m 2.05,0 v 0 0 q 0,0.41 0.13,0.75 v 0 0 q 0.14,0.33 0.38,0.58 v 0 0 q 0.23,0.25 0.54,0.38 v 0 0 q 0.31,0.14 0.67,0.14 v 0 0 q 0.36,0 0.67,-0.13 v 0 0 q 0.31,-0.14 0.54,-0.38 v 0 0 q 0.23,-0.25 0.36,-0.59 v 0 0 q 0.13,-0.34 0.13,-0.75 v 0 0 q 0,-0.42 -0.13,-0.76 v 0 0 Q 18.62,8.78 18.39,8.54 v 0 0 Q 18.16,8.3 17.85,8.17 v 0 0 Q 17.54,8.05 17.18,8.05 v 0 0 q -0.36,0 -0.67,0.12 v 0 0 Q 16.2,8.3 15.97,8.54 v 0 0 q -0.24,0.24 -0.38,0.58 v 0 0 Q 15.46,9.46 15.46,9.88 Z M 26.37,8.24 V 6.37 h 3.35 v 5.21 h 0.86 v 1.87 h -3 v -0.6 0 q -0.37,0.33 -0.85,0.51 v 0 0 q -0.49,0.18 -1.12,0.18 v 0 0 q -0.59,0 -1.11,-0.19 v 0 0 q -0.52,-0.18 -0.91,-0.56 v 0 0 q -0.38,-0.37 -0.6,-0.93 v 0 0 Q 22.76,11.3 22.76,10.54 v 0 -2.3 H 21.84 V 6.37 h 3.13 v 4.17 0 q 0,0.71 0.36,1.06 v 0 0 q 0.37,0.36 0.95,0.36 v 0 0 q 0.41,0 0.74,-0.26 v 0 0 q 0.34,-0.25 0.49,-0.68 v 0 -2.78 z m 9.76,0.3 v 0 q 0,-0.17 -0.1,-0.32 v 0 0 Q 35.92,8.07 35.72,7.96 v 0 0 Q 35.51,7.85 35.22,7.78 v 0 0 Q 34.92,7.71 34.54,7.71 v 0 0 q -0.14,0 -0.31,0.02 v 0 0 q -0.16,0.03 -0.3,0.09 v 0 0 Q 33.79,7.88 33.7,7.99 v 0 0 q -0.09,0.1 -0.09,0.27 v 0 0 q 0,0.08 0.02,0.16 v 0 0 q 0.02,0.07 0.09,0.14 v 0 0 q 0.07,0.07 0.19,0.13 v 0 0 q 0.12,0.05 0.31,0.09 v 0 l 1.29,0.25 v 0 q 0.69,0.14 1.16,0.34 v 0 0 q 0.48,0.21 0.76,0.48 v 0 0 q 0.29,0.27 0.42,0.61 v 0 0 q 0.12,0.33 0.12,0.72 v 0 0 q 0,0.61 -0.28,1.07 v 0 0 q -0.28,0.46 -0.75,0.76 v 0 0 q -0.46,0.31 -1.03,0.46 v 0 0 q -0.58,0.15 -1.17,0.15 v 0 0 q -0.38,0 -0.69,-0.04 v 0 0 q -0.31,-0.05 -0.56,-0.13 v 0 0 q -0.25,-0.09 -0.45,-0.2 v 0 0 Q 32.85,13.14 32.68,13 v 0 h -1.23 v -1.9 h 1.93 v 0.04 0 q 0.01,0.2 0.12,0.35 v 0 0 q 0.12,0.14 0.31,0.25 v 0 0 q 0.19,0.1 0.42,0.15 v 0 0 q 0.24,0.05 0.51,0.05 v 0 0 q 0.62,0 0.9,-0.16 v 0 0 q 0.28,-0.16 0.28,-0.41 v 0 0 q 0,-0.2 -0.14,-0.34 v 0 0 q -0.14,-0.14 -0.49,-0.22 v 0 l -1.31,-0.28 v 0 q -1.24,-0.24 -1.86,-0.8 v 0 0 Q 31.49,9.17 31.49,8.3 v 0 0 q 0,-0.51 0.24,-0.93 v 0 0 q 0.23,-0.42 0.65,-0.72 v 0 0 q 0.41,-0.3 0.96,-0.46 v 0 0 q 0.55,-0.17 1.17,-0.17 v 0 0 q 0.44,0 0.77,0.05 v 0 0 q 0.34,0.06 0.6,0.14 v 0 0 q 0.27,0.08 0.47,0.19 v 0 0 q 0.2,0.11 0.36,0.24 v 0 h 1.19 v 1.9 z m 3.02,-0.3 V 6.37 h 3.18 v 5.21 h 0.98 v 1.87 h -4.16 v -1.87 h 1.07 V 8.24 Z m 0.96,-4.15 v 0 0 q 0,-0.26 0.09,-0.48 v 0 0 q 0.09,-0.22 0.26,-0.38 v 0 0 q 0.16,-0.17 0.38,-0.26 v 0 0 q 0.22,-0.1 0.48,-0.1 v 0 0 q 0.25,0 0.47,0.1 v 0 0 q 0.22,0.09 0.38,0.26 v 0 0 q 0.16,0.16 0.26,0.38 v 0 0 q 0.1,0.22 0.1,0.48 v 0 0 q 0,0.25 -0.1,0.47 v 0 0 q -0.1,0.23 -0.26,0.39 v 0 0 q -0.16,0.16 -0.38,0.26 v 0 0 Q 41.57,5.3 41.32,5.3 v 0 0 q -0.26,0 -0.48,-0.09 v 0 0 Q 40.62,5.11 40.46,4.95 v 0 0 Q 40.29,4.79 40.2,4.56 v 0 0 Q 40.11,4.34 40.11,4.09 Z m 7.13,-0.43 -0.02,2.71 h 1.42 v 1.79 h -1.43 l -0.01,3 v 0 q 0,0.26 0.04,0.42 v 0 0 q 0.04,0.16 0.12,0.25 v 0 0 q 0.07,0.1 0.18,0.13 v 0 0 Q 47.65,12 47.8,12 v 0 0 q 0.26,0 0.45,-0.05 v 0 0 q 0.2,-0.06 0.4,-0.12 v 0 l 0.3,1.32 v 0 q -0.35,0.21 -0.78,0.34 v 0 0 q -0.43,0.13 -1.02,0.13 v 0 0 q -0.41,0 -0.79,-0.14 v 0 0 q -0.38,-0.14 -0.67,-0.43 v 0 0 Q 45.4,12.76 45.23,12.32 v 0 0 Q 45.06,11.88 45.07,11.3 v 0 L 45.09,8.16 H 44.07 V 6.37 h 1.03 l 0.01,-1.69 z m 5.47,0 -0.02,2.71 h 1.42 v 1.79 h -1.43 l -0.02,3 v 0 q 0,0.26 0.05,0.42 v 0 0 q 0.04,0.16 0.11,0.25 v 0 0 q 0.08,0.1 0.19,0.13 v 0 0 Q 53.12,12 53.27,12 v 0 0 q 0.26,0 0.45,-0.05 v 0 0 q 0.2,-0.06 0.4,-0.12 v 0 l 0.29,1.32 v 0 q -0.34,0.21 -0.77,0.34 v 0 0 q -0.43,0.13 -1.02,0.13 v 0 0 q -0.41,0 -0.79,-0.14 v 0 0 q -0.38,-0.14 -0.67,-0.43 v 0 0 Q 50.87,12.76 50.7,12.32 v 0 0 Q 50.53,11.88 50.54,11.3 v 0 L 50.56,8.16 H 49.54 V 6.37 h 1.03 l 0.01,-1.69 z m 9.83,6.7 h -5.21 l 0.02,0.21 v 0 q 0.07,0.31 0.25,0.54 v 0 0 q 0.18,0.23 0.43,0.39 v 0 0 q 0.25,0.16 0.55,0.23 v 0 0 q 0.3,0.08 0.61,0.08 v 0 0 q 0.3,0 0.58,-0.04 v 0 0 q 0.28,-0.03 0.54,-0.1 v 0 0 q 0.26,-0.06 0.5,-0.15 v 0 0 q 0.25,-0.08 0.5,-0.18 v 0 l 0.75,1.4 v 0 q -0.39,0.24 -0.71,0.41 v 0 0 q -0.33,0.17 -0.65,0.28 v 0 0 q -0.33,0.11 -0.7,0.16 v 0 0 q -0.37,0.05 -0.86,0.05 v 0 0 q -0.93,0 -1.64,-0.31 v 0 0 q -0.72,-0.3 -1.21,-0.82 v 0 0 Q 55.8,11.99 55.55,11.29 v 0 0 Q 55.29,10.6 55.29,9.82 v 0 0 q 0,-0.78 0.27,-1.47 v 0 0 q 0.27,-0.68 0.76,-1.19 v 0 0 q 0.49,-0.51 1.18,-0.8 v 0 0 q 0.68,-0.3 1.51,-0.3 v 0 0 q 0.84,0 1.48,0.28 v 0 0 q 0.65,0.28 1.09,0.77 v 0 0 q 0.45,0.48 0.69,1.14 v 0 0 q 0.24,0.66 0.26,1.42 v 0 0 q 0.02,0.17 0.02,0.34 v 0 0 q 0.01,0.17 -0.01,0.35 z M 58.96,7.77 v 0 0 q -0.38,0 -0.65,0.09 v 0 0 q -0.27,0.1 -0.46,0.26 v 0 0 q -0.18,0.16 -0.29,0.36 v 0 0 q -0.11,0.21 -0.17,0.43 v 0 h 2.96 v 0 Q 60.3,8.68 60.21,8.48 v 0 0 Q 60.12,8.27 59.96,8.11 v 0 0 Q 59.81,7.96 59.56,7.86 v 0 0 Q 59.32,7.77 58.96,7.77 Z M 70.02,6.38 V 8.95 H 68.1 v -0.73 0 q -0.28,0 -0.51,0.03 v 0 0 q -0.24,0.04 -0.41,0.13 v 0 0 q -0.17,0.09 -0.29,0.25 v 0 0 q -0.12,0.15 -0.17,0.39 v 0 2.56 h 1.44 v 1.87 H 63.54 V 11.58 H 64.6 V 8.24 H 63.55 V 6.37 h 3.16 v 0.5 0 q 0.3,-0.24 0.67,-0.37 v 0 0 Q 67.76,6.37 68.2,6.37 v 0 0 q 0.45,0 0.93,0.01 v 0 0 q 0.48,0 0.89,0 z m 5.68,2.16 v 0 q 0,-0.17 -0.1,-0.32 v 0 0 Q 75.49,8.07 75.28,7.96 v 0 0 q -0.2,-0.11 -0.5,-0.18 v 0 0 Q 74.48,7.71 74.11,7.71 v 0 0 q -0.15,0 -0.31,0.02 v 0 0 q -0.16,0.03 -0.3,0.09 v 0 0 q -0.14,0.06 -0.24,0.17 v 0 0 q -0.09,0.1 -0.09,0.27 v 0 0 q 0,0.08 0.03,0.16 v 0 0 q 0.02,0.07 0.09,0.14 v 0 0 q 0.07,0.07 0.19,0.13 v 0 0 q 0.12,0.05 0.31,0.09 v 0 l 1.28,0.25 v 0 q 0.7,0.14 1.17,0.34 v 0 0 Q 76.71,9.58 77,9.85 v 0 0 q 0.29,0.27 0.41,0.61 v 0 0 q 0.13,0.33 0.13,0.72 v 0 0 q 0,0.61 -0.28,1.07 v 0 0 q -0.29,0.46 -0.75,0.76 v 0 0 q -0.46,0.31 -1.04,0.46 v 0 0 q -0.58,0.15 -1.16,0.15 v 0 0 q -0.39,0 -0.7,-0.04 v 0 0 Q 73.3,13.53 73.05,13.45 v 0 0 q -0.25,-0.09 -0.44,-0.2 v 0 0 Q 72.41,13.14 72.25,13 v 0 h -1.24 v -1.9 h 1.94 v 0.04 0 q 0,0.2 0.12,0.35 v 0 0 q 0.12,0.14 0.3,0.25 v 0 0 q 0.19,0.1 0.43,0.15 v 0 0 q 0.24,0.05 0.51,0.05 v 0 0 q 0.61,0 0.89,-0.16 v 0 0 q 0.28,-0.16 0.28,-0.41 v 0 0 q 0,-0.2 -0.13,-0.34 v 0 0 q -0.14,-0.14 -0.49,-0.22 v 0 l -1.31,-0.28 v 0 q -1.24,-0.24 -1.87,-0.8 v 0 0 Q 71.05,9.17 71.05,8.3 v 0 0 q 0,-0.51 0.24,-0.93 v 0 0 q 0.24,-0.42 0.65,-0.72 v 0 0 q 0.41,-0.3 0.96,-0.46 v 0 0 q 0.55,-0.17 1.18,-0.17 v 0 0 q 0.43,0 0.77,0.05 v 0 0 q 0.33,0.06 0.6,0.14 v 0 0 q 0.26,0.08 0.47,0.19 v 0 0 q 0.2,0.11 0.36,0.24 v 0 h 1.18 v 1.9 z"
       id="path8"
       style="fill:#ffffff" />
  </g>
  <defs
     data-v-fde0c5aa=""
     id="defs16">
    <linearGradient
       data-v-fde0c5aa=""
       gradientTransform="rotate(25)"
       id="28ccac42-fe39-4b4b-b70b-24cd2214d825"
       x1="0"
       y1="0"
       x2="1"
       y2="0">
      <stop
         data-v-fde0c5aa=""
         offset="0%"
         stop-color="#41E296"
         stop-opacity="1"
         id="stop11" />
      <stop
         data-v-fde0c5aa=""
         offset="100%"
         stop-color="#00C4EE"
         stop-opacity="1"
         id="stop13" />
    </linearGradient>
  </defs>
  <g
     data-v-fde0c5aa=""
     id="bcf81c43-ac6b-4663-a8eb-73578ed0489d"
     stroke="none"
     fill="url(#28ccac42-fe39-4b4b-b70b-24cd2214d825)"
     transform="matrix(0.52783602,0,0,0.52783602,-4.3224496,-3.6336223)"
     style="fill:url(#linearGradient257)">
    <path
       d="M 102.923,54.276 96.612,60.683 55.61,19.633 14.584,60.683 8.189,54.276 55.584,6.887 55.655,6.955 55.904,6.884 75.281,26.08 V 12.474 h 8 v 22.35 z"
       id="path18"
       style="fill:url(#linearGradient253)" />
    <path
       d="m 47.281,40.474 h 17 v 29 h -17 z"
       id="path20"
       style="fill:url(#linearGradient255)" />
  </g>
  <!---->
</svg>
